<svg xmlns:xlink="http://www.w3.org/1999/xlink" xmlns="http://www.w3.org/2000/svg" width="36.36363636363637" height="32" viewBox="0 0 75 66" fill="none">
<path d="M16.75 15V40.9067C15.4379 40.4321 14.0421 40.125 12.5625 40.125C5.61125 40.125 0 45.7362 0 52.6875C0 59.6388 5.61125 65.25 12.5625 65.25C19.0113 65.25 24.2875 60.3646 24.9854 54.0833H25.125V23.375H50.7891V15H16.75Z" fill="#fff" fill-opacity="0.87"></path>
<path d="M50.75 15V40.9067C49.4379 40.4321 48.0421 40.125 46.5625 40.125C39.6112 40.125 34 45.7362 34 52.6875C34 59.6388 39.6112 65.25 46.5625 65.25C53.0113 65.25 58.2875 60.3646 58.9854 54.0833H59.125V23.375V15H50.75Z" fill="#fff" fill-opacity="0.87"></path>
<path d="M56 9C62 9.5 64.2125 11.7242 65.5 17.5" stroke="#EF323F" stroke-width="4"></path>
<path d="M56 2C66.7368 2.82353 70.696 6.48689 73 16" stroke="#EF323F" stroke-width="4"></path>
</svg>